<svg width="147" height="153" viewBox="0 0 147 153" fill="none" xmlns="http://www.w3.org/2000/svg">
<g clip-path="url(#clip0_1343_990)">
<path fill-rule="evenodd" clip-rule="evenodd" d="M130.871 57.8604C129.498 57.4042 106.351 53.8809 99.3054 47.4941C96.7182 45.1452 94.3419 45.4156 95.2501 47.9232C95.9365 49.7793 95.526 57.9814 95.5096 59.3049C95.4487 59.3118 79.137 56.0101 67.7601 64.8797C67.3329 65.2185 65.8235 65.229 64.1319 64.9702C50.7219 62.5955 32.6517 71.1306 18.8785 86.3009C17.6639 87.664 15.8189 89.4856 14.8017 90.375C10.7938 93.9256 16.0055 100.166 23.9093 91.6919C34.7845 80.075 43.6033 74.1719 54.1748 71.4863C60.3579 69.8802 60.6421 69.9446 58.7143 72.4526C49.9988 83.7916 62.5056 100.001 76.272 97.21C86.6595 95.1256 89.9252 81.1831 78.102 71.2461C76.3792 69.7981 75.0485 68.5634 75.1299 68.4574C77.0438 66.1122 90.5612 62.7046 94.9524 63.4299C95.7981 63.5593 96.4977 71.7641 95.6904 72.5974C94.2997 74.045 97.5812 77.7333 99.9781 77.3638C100.554 77.2661 103.731 75.8086 107.004 74.0824C114.221 70.2634 119.193 68.5695 126.82 65.7354C133.371 63.2171 137.48 60.0419 130.871 57.8604ZM66.961 74.3833C70.8265 70.9456 76.7662 72.3329 78.9013 77.1508C81.8447 83.8109 78.531 88.7008 74.0725 90.8843C62.0522 96.8293 57.7921 82.5504 66.961 74.3833Z" fill="#FF8C08"/>
</g>
<defs>
<clipPath id="clip0_1343_990">
<rect width="105.437" height="106.454" fill="white" transform="matrix(0.765529 0.643402 -0.609411 0.792855 65.6561 0.760254)"/>
</clipPath>
</defs>
</svg>
